HIERARCHY
ROOT Pelvis
{
	OFFSET 0.000000 0.000000 0.000000
	CHANNELS 6 Xposition Yposition Zposition Xrotation Yrotation Zrotation
	JOINT LeftUpLeg_virtual
	{
		OFFSET 0.000000 0.000000 0.000000
		CHANNELS 3 Xrotation Yrotation Zrotation
		JOINT LeftUpLeg
		{
			OFFSET 18.735201 -5.666702 -4.541200
			CHANNELS 3 Xrotation Yrotation Zrotation
			JOINT LeftLeg
			{
				OFFSET -0.021200 -31.938179 0.493100
				CHANNELS 3 Xrotation Yrotation Zrotation
				JOINT LeftFoot
				{
					OFFSET 0.021200 -31.938179 -4.336299
					CHANNELS 3 Xrotation Yrotation Zrotation
					JOINT LeftToeBase
					{
						OFFSET 0.943001 -26.722000 15.023500
						CHANNELS 3 Xrotation Yrotation Zrotation
						End Site
						{
							OFFSET 0 0 0
						}
					}
				}
			}
		}
	}
	JOINT RightUpLeg_virtual
	{
		OFFSET 0.000000 0.000000 0.000000
		CHANNELS 3 Xrotation Yrotation Zrotation
		JOINT RightUpLeg
		{
			OFFSET -18.735201 -5.666702 -4.541200
			CHANNELS 3 Xrotation Yrotation Zrotation
			JOINT RightLeg
			{
				OFFSET 0.018946 -31.938133 0.493100
				CHANNELS 3 Xrotation Yrotation Zrotation
				JOINT RightFoot
				{
					OFFSET -0.018946 -31.938126 -4.336299
					CHANNELS 3 Xrotation Yrotation Zrotation
					JOINT RightToeBase
					{
						OFFSET -0.943001 -26.722004 15.023500
						CHANNELS 3 Xrotation Yrotation Zrotation
						End Site
						{
							OFFSET 0 0 0
						}
					}
				}
			}
		}
	}
	JOINT Hips_virtual
	{
		OFFSET 0.000000 0.000000 0.000000
		CHANNELS 3 Xrotation Yrotation Zrotation
		JOINT Hips
		{
			OFFSET -0.000000 -0.000000 -0.000000
			CHANNELS 3 Xrotation Yrotation Zrotation
			JOINT Spine
			{
				OFFSET 0.000000 10.199997 -0.299500
				CHANNELS 3 Xrotation Yrotation Zrotation
				JOINT Spine1
				{
					OFFSET 0.000000 11.900002 -1.516600
					CHANNELS 3 Xrotation Yrotation Zrotation
					JOINT Spine2
					{
						OFFSET 0.000000 13.600006 -2.842500
						CHANNELS 3 Xrotation Yrotation Zrotation
						JOINT Neck_virtual
						{
							OFFSET 0.000000 0.000000 0.000000
							CHANNELS 3 Xrotation Yrotation Zrotation
							JOINT Neck
							{
								OFFSET 0.000000 9.624100 -2.890100
								CHANNELS 3 Xrotation Yrotation Zrotation
								JOINT Head
								{
									OFFSET 0.000000 14.068802 -1.351900
									CHANNELS 3 Xrotation Yrotation Zrotation
									End Site
									{
										OFFSET 0 0 0
									}
								}
							}
						}
						JOINT LeftShoulder_virtual
						{
							OFFSET 0.000000 0.000000 0.000000
							CHANNELS 3 Xrotation Yrotation Zrotation
							JOINT LeftShoulder
							{
								OFFSET 15.263000 10.923401 -0.547700
								CHANNELS 3 Xrotation Yrotation Zrotation
								JOINT LeftArm
								{
									OFFSET 25.438599 -2.830597 -13.032500
									CHANNELS 3 Xrotation Yrotation Zrotation
									JOINT LeftForeArm
									{
										OFFSET 29.960503 0.000000 0.000000
										CHANNELS 3 Xrotation Yrotation Zrotation
										JOINT LeftHand
										{
											OFFSET 27.849251 0.000000 0.000000
											CHANNELS 3 Xrotation Yrotation Zrotation
											End Site
											{
												OFFSET 0 0 0
											}
										}
									}
								}
							}
						}
						JOINT RightShoulder_virtual
						{
							OFFSET 0.000000 0.000000 0.000000
							CHANNELS 3 Xrotation Yrotation Zrotation
							JOINT RightShoulder
							{
								OFFSET -15.263000 10.923401 -0.547700
								CHANNELS 3 Xrotation Yrotation Zrotation
								JOINT RightArm
								{
									OFFSET -25.438599 -2.830597 -13.032500
									CHANNELS 3 Xrotation Yrotation Zrotation
									JOINT RightForeArm
									{
										OFFSET -29.960503 0.000000 0.000000
										CHANNELS 3 Xrotation Yrotation Zrotation
										JOINT RightHand
										{
											OFFSET -27.849251 0.000000 0.000000
											CHANNELS 3 Xrotation Yrotation Zrotation
											End Site
											{
												OFFSET 0 0 0
											}
										}
									}
								}
							}
						}
					}
				}
			}
		}
	}
}
MOTION
Frames: 4
Frame Time: 0.03333333
4.980295 70.578712 135.504471 0.000000 0.000000 0.000000 8.393053 -19.275605 0.918807 34.005302 32.250394 7.556137 24.772449 19.414533 -3.593739 -23.156086 -3.095051 -33.683208 0.000000 0.000000 0.000000 8.393053 -19.275605 0.918807 -83.874573 -3.743295 -9.036175 62.962658 3.856920 -7.649776 11.764374 7.854304 7.116441 0.000000 0.000000 0.000000 8.393053 -19.275605 0.918807 0.000000 0.000001 0.000000 2.412458 -4.753693 1.715579 4.820219 -8.149190 2.085947 0.000000 0.000000 0.000000 4.820147 -8.149125 2.085946 1.954738 0.316681 3.010816 0.000000 0.000000 0.000000 4.820147 -8.149125 2.085946 -4.481860 -16.524639 -19.193557 -50.218256 -13.065780 -29.545349 -9.513720 -45.265115 18.313337 0.000000 0.000000 0.000000 4.820147 -8.149125 2.085946 0.026767 -1.767836 1.230270 -18.293014 31.587303 8.179648 40.535192 8.128189 -4.683268 0.000000 0.000000 0.000000 
4.544971 70.904190 137.597153 0.000000 0.000000 0.000000 10.261430 -18.405686 0.362110 34.401942 33.995860 7.711290 20.065919 21.607054 -3.085999 -18.686506 -4.806187 -33.744092 0.000000 0.000000 0.000000 10.261430 -18.405686 0.362110 -84.303693 -4.932844 -9.971817 65.425754 4.904146 -7.689026 8.016278 6.504851 7.487705 0.000000 0.000000 0.000000 10.261430 -18.405686 0.362110 0.000000 -0.000001 0.000000 2.438035 -5.677390 2.039719 4.899762 -10.154806 2.662431 0.000000 0.000000 0.000000 4.899748 -10.154744 2.662416 1.784087 0.646258 3.121208 0.000000 0.000000 0.000000 4.899748 -10.154744 2.662416 -5.170239 -18.664281 -18.158317 -46.432797 -18.052718 -34.485598 -9.204827 -38.217060 16.317078 0.000000 0.000000 0.000000 4.899748 -10.154744 2.662416 0.248731 -2.144193 4.457621 -14.470970 21.706652 4.671655 37.782243 8.308580 -4.381101 0.000000 0.000000 0.000000 
4.110306 71.300835 139.867081 0.000000 0.000000 0.000000 12.000723 -17.424868 -0.226055 33.838014 35.556862 8.654200 16.215883 23.789837 -2.644663 -12.755819 -6.772781 -33.561019 0.000000 0.000000 0.000000 12.000723 -17.424868 -0.226055 -84.152773 -5.748075 -10.782268 67.830718 6.354522 -7.681116 3.989587 4.368116 8.002511 0.000000 0.000000 0.000000 12.000723 -17.424868 -0.226055 0.000000 0.000001 0.000000 2.460335 -6.481893 2.266604 4.960979 -11.924856 3.021994 0.000000 0.000000 0.000000 4.961008 -11.924962 3.022037 1.585875 0.975623 3.222326 0.000000 0.000000 0.000000 4.961008 -11.924962 3.022037 -5.400961 -20.399535 -16.650068 -43.348455 -23.388175 -38.897907 -9.093624 -31.903807 14.184718 0.000000 0.000000 0.000000 4.961008 -11.924962 3.022037 0.440951 -2.570705 6.867595 -12.839501 16.555899 3.599487 34.933651 8.728785 -3.601198 0.000000 0.000000 0.000000 
3.764725 71.493752 141.764130 0.000000 0.000000 0.000000 13.057575 -17.710783 -0.827261 32.836667 36.734492 10.079525 13.767564 25.421501 -1.677790 -5.061621 -9.010254 -34.446847 0.000000 0.000000 0.000000 13.057575 -17.710783 -0.827261 -83.548042 -6.187269 -10.380358 69.057659 6.254646 -7.739059 1.233863 3.982995 8.490332 0.000000 0.000000 0.000000 13.057575 -17.710783 -0.827261 0.000000 0.000000 0.000000 2.482406 -7.191280 2.476944 5.005439 -13.331995 3.278268 0.000000 0.000000 0.000000 5.005469 -13.331909 3.278241 1.368817 1.302167 3.313792 0.000000 0.000000 0.000000 5.005469 -13.331909 3.278241 -5.462529 -21.822328 -15.277255 -41.539838 -28.186690 -42.662666 -9.093015 -26.803735 12.045810 0.000000 0.000000 0.000000 5.005469 -13.331909 3.278241 0.571908 -3.041704 8.393508 -12.235276 14.739593 3.552613 31.986903 9.211506 -2.529621 0.000000 0.000000 0.000000 
